<svg xmlns="http://www.w3.org/2000/svg" width="209" height="48" fill="none" viewBox="0 0 209 48"><path fill="#fff" d="M94.651 32.953q-2.569 0-4.658-1.108a8.57 8.57 0 0 1-3.265-3.105q-1.176-1.997-1.176-4.5t1.176-4.477a8.34 8.34 0 0 1 3.265-3.105q2.089-1.131 4.682-1.131 2.185 0 3.938.77a7.9 7.9 0 0 1 2.977 2.214l-2.497 2.31q-1.705-1.973-4.226-1.973-1.56 0-2.785.698a4.87 4.87 0 0 0-1.92 1.902q-.673 1.227-.673 2.792t.672 2.792a5.04 5.04 0 0 0 1.921 1.925q1.225.674 2.785.674 2.521 0 4.226-1.998l2.497 2.31a7.8 7.8 0 0 1-2.978 2.24q-1.776.77-3.961.77m16.891 0q-3.602 0-5.618-1.998-1.993-1.998-1.993-5.704v-9.435h3.89v9.29q0 4.525 3.745 4.525 1.825 0 2.785-1.083.96-1.107.96-3.442v-9.29h3.842v9.434q0 3.707-2.017 5.705-1.992 1.998-5.594 1.998m23.794-9.05q1.441.457 2.257 1.54.817 1.059.817 2.624 0 2.214-1.729 3.417-1.704 1.18-4.994 1.18h-8.691V15.816h8.211q3.073 0 4.706 1.179 1.656 1.179 1.656 3.201 0 1.227-.6 2.19a4.03 4.03 0 0 1-1.633 1.517m-8.475-5.151v3.971h3.866q1.44 0 2.185-.505.744-.506.744-1.492 0-.987-.744-1.469-.745-.505-2.185-.505zm4.538 10.975q1.536 0 2.305-.505.792-.506.792-1.565 0-2.094-3.097-2.094h-4.538v4.164zm21.023-.674h-7.803l-1.488 3.61h-3.986l7.491-16.847h3.841l7.515 16.848h-4.081zm-1.224-2.96-2.665-6.45-2.665 6.45zm11.175-7.1h-5.378v-3.177h14.645v3.177h-5.378v13.67h-3.889zm19.264 13.96q-2.617 0-4.729-1.132-2.089-1.131-3.29-3.105-1.176-1.997-1.176-4.476t1.176-4.453a8.47 8.47 0 0 1 3.29-3.129q2.112-1.131 4.729-1.131t4.706 1.131a8.47 8.47 0 0 1 3.289 3.129q1.2 1.974 1.201 4.453 0 2.479-1.201 4.476-1.2 1.974-3.289 3.105t-4.706 1.131m0-3.322q1.49 0 2.689-.674a4.9 4.9 0 0 0 1.873-1.925q.696-1.229.696-2.792 0-1.565-.696-2.792a4.75 4.75 0 0 0-1.873-1.902q-1.2-.698-2.689-.698-1.488 0-2.689.698a4.9 4.9 0 0 0-1.896 1.902q-.673 1.227-.673 2.792t.673 2.792a5.1 5.1 0 0 0 1.896 1.925q1.201.674 2.689.674m22.826 3.034-3.241-4.694h-3.577v4.694h-3.889V15.816h7.274q2.233 0 3.866.746 1.656.745 2.544 2.118.89 1.371.889 3.249 0 1.878-.913 3.25-.888 1.347-2.544 2.07l3.769 5.415zm-.072-10.735q0-1.42-.912-2.166-.912-.77-2.665-.77h-3.169v5.872h3.169q1.753 0 2.665-.77t.912-2.166M0 15.841h3.883v16.792H0zm11.341 3.167h-5.37V15.84h14.623v3.167h-5.37v13.625h-3.883zm33.647-3.167h3.888v16.792h-3.888zm23.287 0v16.792h-3.193l-8.377-10.195v10.195h-3.84V15.841h3.216l8.353 10.196V15.84z"/><path fill="#ff0808" fill-rule="evenodd" d="M46.65 8.711a2.614 2.614 0 1 1-.001 5.228 2.614 2.614 0 0 1 0-5.228" clip-rule="evenodd"/><path fill="#fff" fill-rule="evenodd" d="M25.99 21.386c1.488 0 2.693 1.17 2.693 2.614s-1.206 2.614-2.693 2.614-2.693-1.17-2.693-2.614 1.205-2.614 2.693-2.614M56.637 46c12.15 0 22-9.85 22-22s-9.85-22-22-22-22 9.85-22 22 9.85 22 22 22m0 2c13.255 0 24-10.745 24-24s-10.745-24-24-24c-13.254 0-24 10.745-24 24s10.746 24 24 24" clip-rule="evenodd"/></svg>